<svg width="129" height="42" xmlns="http://www.w3.org/2000/svg">
 <!-- Generator: Sketch 55.2 (78181) - https://sketchapp.com -->

 <title>编组</title>
 <desc>Created with Sketch.</desc>
 <g>
  <title>background</title>
  <rect fill="none" id="canvas_background" height="44" width="131" y="-1" x="-1"/>
 </g>
 <g>
  <title>Layer 1</title>
  <g fill-rule="evenodd" fill="none" id="页面1">
   <g fill-rule="nonzero" id="编组">
    <polygon points="0.7699999809265172,0.3399999998509884 16.890000820159912,0.3399999998509884 15.410000324249268,4.999999791383743 11.230000019073486,4.999999791383743 11.230000019073486,21.999999314546585 6,21.999999314546585 6,4.999999791383743 0.7799999807029963,4.999999791383743 " fill="#000000" id="路径"/>
    <polygon points="43.290000438690186,0.3399999998509884 59.77999830245972,0.3399999998509884 58.29999876022339,4.999999791383743 53.76000165939331,4.999999791383743 53.76000165939331,21.999999314546585 48.540000438690186,21.999999314546585 48.540000438690186,4.999999791383743 43.29999876022339,4.999999791383743 " fill="#000000" id="路径"/>
    <polygon points="17.87000036239624,7.22999981045723 23.040000438690186,7.22999981045723 23.040000438690186,21.999999314546585 17.90999937057495,21.999999314546585 " fill="#000000" id="路径"/>
    <polygon points="25.089999675750732,0.2800000011920929 30.249999523162842,0.2800000011920929 30.249999523162842,10.370000153779984 35.36999845504761,5.3700001537799835 41.52999830245972,5.3700001537799835 35.06000089645386,11.649999886751175 42.31000089645386,21.999999314546585 36.61999845504761,21.999999314546585 31.78000020980835,14.809999734163284 30.249999523162842,16.29000023007393 30.249999523162842,21.999999314546585 25.089999675750732,21.999999314546585 " fill="#000000" id="路径"/>
    <polygon points="79.78000211715698,0.2800000011920929 85.00000333786011,0.2800000011920929 85.00000333786011,10.370000153779984 90.10999631881714,5.3700001537799835 96.26999998092651,5.3700001537799835 89.79999876022339,11.649999886751175 97.00000333786011,21.999999314546585 91.31000089645386,21.999999314546585 86.47999906539917,14.809999734163284 85.00000333786011,16.29000023007393 85.00000333786011,21.999999314546585 79.82999753952026,21.999999314546585 " fill="#000000" id="路径"/>
    <circle r="2.6" cy="2.94" cx="20.46" fill="#000000" id="椭圆形"/>
    <path fill="#25F4EE" id="路径" d="m59.119999,13.16c0.001583,-4.61343 3.550652,-8.4499 8.149998,-8.809999c-0.230003,0 -0.540001,0 -0.769997,0c-4.674309,0.27265 -8.325241,4.14275 -8.325241,8.825c0,4.68225 3.650932,8.55235 8.325241,8.825c0.229996,0 0.539993,0 0.769997,0c-4.610867,-0.360979 -8.164104,-4.21504 -8.149998,-8.84z"/>
    <path fill="#FE2C55" id="路径" d="m69.279999,4.32c-0.240005,0 -0.550003,0 -0.779999,0c4.584457,0.37866 8.112328,4.20993 8.112328,8.81c0,4.60007 -3.52787,8.43134 -8.112328,8.81c0.229996,0 0.539993,0 0.779999,0c4.882195,0 8.839996,-3.9578 8.839996,-8.840001c0,-4.882199 -3.957802,-8.839999 -8.839996,-8.839999l0,0.06z"/>
    <path fill="#000000" id="形状" d="m67.879997,17.460001c-2.374817,0 -4.299995,-1.925181 -4.299995,-4.300001c0,-2.37482 1.925179,-4.3 4.299995,-4.3c2.374832,0 4.300003,1.92518 4.300003,4.3c-0.005501,2.37254 -1.927467,4.2945 -4.300003,4.300001l0,0zm0,-13.140001c-4.882198,0 -8.839996,3.957799 -8.839996,8.84c0,4.8822 3.957798,8.84 8.839996,8.84c4.882202,0 8.839996,-3.9578 8.839996,-8.84c0,-2.34451 -0.931351,-4.593 -2.58918,-6.25082c-1.657814,-1.65783 -3.906303,-2.58918 -6.250816,-2.58918z"/>
   </g>
  </g>
  <text font-weight="bold" transform="matrix(0.552589, 0, 0, 0.552589, 19.3669, 18.125)" xml:space="preserve" text-anchor="start" font-family="Oswald, sans-serif" font-size="24" id="svg_1" y="35" x="45.617146" stroke-width="0" stroke="#000" fill="#000000">Downloader</text>
 </g>
</svg>